<?xml version="1.0" ?><svg enable-background="new 0 0 80 80" height="80px" id="Layer_1" version="1.1" viewBox="0 0 80 80" width="80px" xml:space="preserve" xmlns="http://www.w3.org/2000/svg" xmlns:xlink="http://www.w3.org/1999/xlink"><g><circle cx="40" cy="40" fill="#8FDEF6" r="40"/><path d="M51,16H25v4h-4v44l15.866,15.866C37.901,79.947,38.944,80,40,80c20.495,0,37.38-15.418,39.714-35.286   C72.384,37.384,51.075,16.075,51,16z" fill="#70C9E9"/><g><rect fill="#E6E5E5" height="44" width="34" x="21" y="20"/><g><path d="M59,60H25V16h26c3.124,3.124,4.876,4.876,8,8V60z" fill="#FFFFFF"/><path d="M51,16v8h8C55.876,20.876,54.124,19.124,51,16z" fill="#CCCBCA"/></g><g><rect fill="#495057" height="2" width="8" x="47" y="26"/><rect fill="#495057" height="2" width="4" x="41" y="26"/><rect fill="#495057" height="2" width="10" x="29" y="22"/><rect fill="#495057" height="2" width="12" x="41" y="30"/><rect fill="#495057" height="2" width="14" x="41" y="34"/><rect fill="#495057" height="2" width="18" x="29" y="38"/><rect fill="#495057" height="2" width="6" x="49" y="38"/><rect fill="#495057" height="2" width="10" x="29" y="42"/><rect fill="#495057" height="2" width="10" x="29" y="46"/><rect fill="#495057" height="2" width="6" x="29" y="50"/><rect fill="#495057" height="2" width="4" x="41" y="54"/><rect fill="#495057" height="2" width="8" x="47" y="54"/></g><rect fill="#58B4D9" height="10" width="10" x="29" y="26"/><rect fill="#EA6552" height="10" width="14" x="41" y="42"/><g><rect fill="#FFFFFF" height="2" width="2" x="43" y="46"/><rect fill="#FFFFFF" height="2" width="2" x="47" y="46"/><rect fill="#FFFFFF" height="2" width="2" x="51" y="46"/></g></g></g></svg>